<svg xmlns="http://www.w3.org/2000/svg" version="1.0" width="1600.000000pt" height="271.000000pt" viewBox="0 0 1600.000000 271.000000" preserveAspectRatio="xMidYMid meet">
<metadata fill="#b5a8a8">
Created by potrace 1.16, written by Peter Selinger 2001-2019
</metadata>
<g transform="translate(0.000000,271.000000) scale(0.100000,-0.100000)" fill="#b5a8a8" stroke="none">
<path d="M195 2127 c-56 -23 -84 -49 -111 -103 -21 -43 -26 -64 -22 -103 11 -111 83 -182 191 -189 79 -4 138 24 182 86 27 39 30 52 30 117 0 65 -3 78 -30 116 -16 23 -48 51 -69 62 -47 25 -129 31 -171 14z" fill="#b5a8a8"/>
<path d="M756 2120 c-54 -27 -76 -48 -97 -95 -60 -131 25 -281 166 -293 127 -10 225 80 225 208 0 46 -42 130 -77 156 -64 47 -151 56 -217 24z" fill="#b5a8a8"/>
<path d="M8530 2106 c-78 -17 -147 -54 -190 -104 -59 -66 -74 -106 -78 -205 -4 -79 -1 -93 23 -142 45 -94 133 -147 323 -197 152 -39 202 -64 225 -110 16 -33 17 -40 3 -72 -21 -51 -65 -71 -156 -71 -92 0 -181 29 -265 85 l-60 41 -34 -38 c-18 -21 -49 -58 -69 -82 l-36 -43 34 -29 c49 -41 182 -104 261 -123 86 -21 248 -21 320 0 115 34 172 80 217 174 23 47 27 68 27 145 0 105 -18 148 -84 208 -58 52 -124 82 -263 120 -185 50 -238 83 -238 146 0 119 193 135 377 31 29 -17 54 -30 56 -30 2 0 30 39 63 86 l58 86 -24 21 c-43 35 -162 85 -242 101 -90 19 -170 19 -248 2z" fill="#b5a8a8"/>
<path d="M14015 2102 c-97 -30 -166 -70 -236 -141 -108 -108 -159 -239 -159 -406 0 -167 50 -295 159 -405 43 -44 88 -78 131 -98 211 -103 470 -71 634 79 l54 49 -36 39 -36 39 -55 -45 c-106 -86 -213 -121 -339 -110 -121 10 -217 63 -296 163 -179 228 -104 586 149 710 57 27 67 29 185 29 121 0 128 -1 190 -32 36 -17 85 -48 108 -69 l44 -37 41 41 c40 40 40 42 23 61 -34 38 -123 93 -192 118 -94 35 -279 42 -369 15z" fill="#b5a8a8"/>
<path d="M7086 1748 c-65 -200 -122 -367 -127 -372 -5 -6 -10 -3 -13 5 -2 8 -31 102 -64 209 -34 107 -82 266 -108 353 l-47 157 -128 0 -128 0 31 -87 c16 -49 96 -284 178 -523 81 -239 153 -448 159 -463 l11 -28 102 3 101 3 58 165 c31 91 85 249 120 353 35 103 66 187 70 187 4 0 16 -26 28 -57 29 -82 168 -483 199 -576 l26 -78 104 3 104 3 28 85 c15 47 98 292 184 544 86 252 156 461 156 463 0 1 -56 3 -124 3 l-123 0 -37 -127 c-20 -71 -62 -211 -95 -313 -32 -102 -64 -209 -71 -238 -15 -55 -29 -62 -41 -21 -4 13 -58 178 -120 367 l-112 342 -101 0 -101 0 -119 -362z" fill="#b5a8a8"/>
<path d="M10180 2070 c-11 -22 -38 -80 -59 -128 -21 -48 -73 -163 -116 -257 -75 -165 -150 -332 -254 -563 l-50 -113 59 3 60 3 49 104 c28 57 57 121 65 142 l16 39 302 0 303 0 65 -145 64 -145 62 0 63 0 -64 143 c-35 78 -100 223 -145 322 -157 345 -232 510 -258 572 l-27 63 -57 0 c-57 0 -58 0 -78 -40z m153 -270 c130 -290 167 -375 167 -388 0 -9 -57 -12 -244 -12 -135 0 -247 4 -250 8 -5 8 10 43 129 307 35 77 75 167 89 199 15 33 28 57 30 55 3 -2 38 -78 79 -169z" fill="#b5a8a8"/>
<path d="M15220 2090 c-6 -11 -33 -71 -60 -133 -26 -61 -87 -197 -135 -302 -48 -104 -113 -248 -145 -320 -32 -71 -76 -169 -99 -218 -22 -48 -41 -92 -41 -98 0 -6 23 -9 57 -7 l57 3 53 115 c29 62 57 127 62 142 l10 28 305 0 304 0 64 -145 63 -145 64 0 c47 0 62 3 58 13 -3 6 -40 89 -82 182 -42 94 -105 233 -140 310 -35 77 -91 201 -125 275 -34 74 -81 177 -103 228 l-42 92 -57 0 c-47 0 -59 -4 -68 -20z m115 -220 c21 -47 64 -143 95 -215 32 -71 69 -155 83 -186 14 -31 23 -60 19 -63 -3 -4 -115 -6 -249 -5 -181 1 -243 4 -243 13 0 11 54 137 175 406 26 58 51 116 56 129 12 31 17 25 64 -79z" fill="#b5a8a8"/>
<path d="M2250 1555 l0 -545 115 0 115 0 0 545 0 545 -115 0 -115 0 0 -545z" fill="#b5a8a8"/>
<path d="M2690 1995 l0 -105 165 0 165 0 0 -440 0 -440 120 0 120 0 0 440 0 440 165 0 165 0 0 105 0 105 -450 0 -450 0 0 -105z" fill="#b5a8a8"/>
<path d="M4260 1555 l0 -545 115 0 115 0 0 346 c0 213 4 344 9 342 6 -1 38 -41 73 -88 35 -47 106 -141 158 -209 52 -68 113 -147 135 -177 22 -29 67 -90 100 -133 l60 -80 103 -1 102 0 0 545 0 545 -115 0 -115 0 0 -330 c0 -188 -4 -330 -9 -330 -5 0 -68 78 -140 173 -72 94 -184 242 -249 327 l-118 155 -112 3 -112 3 0 -546z" fill="#b5a8a8"/>
<path d="M5500 1555 l0 -545 415 0 415 0 0 105 0 105 -300 0 -301 0 3 118 3 117 263 3 262 2 0 100 0 100 -249 0 c-137 0 -256 3 -265 6 -13 5 -16 25 -16 115 l0 109 299 0 298 0 2 88 c1 48 -1 96 -5 105 -6 16 -39 17 -415 17 l-409 0 0 -545z" fill="#b5a8a8"/>
<path d="M11040 1555 l0 -545 55 0 55 0 2 238 3 237 298 3 297 2 0 55 0 55 -300 0 -300 0 2 198 3 197 333 3 332 2 0 50 0 50 -390 0 -390 0 0 -545z" fill="#b5a8a8"/>
<path d="M12070 1555 l0 -545 60 0 60 0 0 215 0 215 158 0 157 0 120 -163 c65 -89 137 -185 160 -214 l40 -52 73 0 72 -1 -165 218 c-91 121 -165 221 -165 225 0 3 15 9 33 12 51 12 125 53 173 97 74 68 103 193 73 312 -14 57 -73 133 -129 167 -85 52 -137 59 -442 59 l-278 0 0 -545z m595 424 c22 -8 61 -34 86 -59 39 -37 49 -55 58 -101 7 -30 10 -62 7 -70 -2 -8 -7 -27 -11 -42 -3 -16 -27 -51 -52 -78 -71 -76 -125 -89 -369 -89 l-194 0 0 231 0 231 218 -5 c148 -3 230 -9 257 -18z" fill="#b5a8a8"/>
<path d="M13220 1555 l0 -545 55 0 55 0 0 545 0 545 -55 0 -55 0 0 -545z" fill="#b5a8a8"/>
<path d="M765 1587 c-88 -40 -132 -117 -122 -213 5 -53 13 -69 73 -151 41 -56 36 -140 -11 -204 -81 -110 -86 -197 -16 -297 81 -115 77 -159 -25 -299 -21 -29 -29 -122 -14 -167 15 -46 62 -101 104 -123 41 -22 141 -22 182 0 64 33 114 115 114 186 0 51 -13 83 -58 150 -34 50 -37 59 -37 126 0 68 2 76 33 114 75 94 82 182 20 273 -53 78 -58 92 -58 148 0 86 44 144 128 165 59 16 135 4 172 -25 93 -75 160 -95 234 -70 111 36 176 171 132 273 -18 42 -72 96 -113 113 -47 20 -127 17 -173 -6 -21 -11 -42 -24 -45 -30 -10 -16 -76 -47 -115 -54 -51 -9 -131 15 -195 59 -48 33 -65 40 -118 42 -38 2 -74 -2 -92 -10z" fill="#b5a8a8"/>
<path d="M225 1061 c-79 -19 -133 -71 -155 -148 -19 -61 -6 -122 41 -190 71 -104 71 -159 1 -264 -64 -94 -67 -181 -11 -259 36 -50 78 -76 134 -85 154 -23 280 138 220 282 -9 20 -28 53 -42 72 -34 44 -52 114 -42 159 4 18 20 51 36 73 60 84 76 153 53 223 -31 94 -143 159 -235 137z" fill="#b5a8a8"/>
<path d="M2318 473 c-23 -49 -119 -270 -135 -310 -3 -9 5 -13 24 -13 24 0 32 7 51 45 l22 45 90 0 90 0 22 -45 c18 -37 27 -45 50 -45 15 0 28 2 28 4 0 3 -23 58 -51 123 -114 267 -104 248 -136 251 -26 3 -31 -2 -55 -55z" fill="#b5a8a8"/>
<path d="M3992 509 c-127 -63 -137 -259 -19 -337 34 -23 51 -27 112 -27 63 0 76 3 109 29 38 28 38 29 18 48 -20 20 -20 20 -49 -1 -41 -31 -91 -36 -132 -14 -54 28 -75 65 -75 128 0 63 21 100 75 128 41 22 91 17 133 -14 l29 -22 18 24 c17 23 17 25 1 38 -58 45 -151 54 -220 20z" fill="#b5a8a8"/>
<path d="M4505 473 c-34 -73 -135 -311 -135 -318 0 -3 13 -5 29 -5 26 0 32 6 47 45 l17 45 94 0 94 0 19 -45 c17 -39 23 -45 50 -45 16 0 30 2 30 4 0 3 -16 40 -35 83 -20 42 -56 126 -81 185 -43 101 -48 108 -74 108 -25 0 -32 -7 -55 -57z" fill="#b5a8a8"/>
<path d="M5143 510 c-39 -24 -53 -48 -53 -95 0 -48 33 -80 106 -100 77 -22 104 -40 104 -69 0 -54 -71 -70 -144 -32 -46 23 -50 24 -62 8 -19 -25 -18 -28 24 -54 30 -19 51 -23 110 -23 70 0 75 1 103 33 21 24 29 42 29 71 0 58 -29 87 -110 111 -38 11 -76 28 -85 37 -23 22 -15 55 17 73 25 14 32 13 75 -3 27 -10 52 -19 56 -20 5 -1 16 8 24 20 15 22 14 24 -28 43 -57 25 -125 26 -166 0z" fill="#b5a8a8"/>
<path d="M6759 507 c-24 -13 -57 -43 -74 -66 -26 -37 -30 -51 -29 -107 0 -55 5 -71 30 -107 62 -87 172 -113 261 -62 44 26 53 44 30 63 -9 8 -27 4 -65 -15 -47 -23 -57 -25 -92 -14 -133 40 -132 233 2 273 33 10 43 8 87 -14 49 -24 51 -24 67 -7 14 16 15 21 3 35 -40 48 -149 58 -220 21z" fill="#b5a8a8"/>
<path d="M8275 511 c-152 -70 -153 -275 -1 -353 30 -15 53 -19 97 -16 99 7 171 72 185 166 23 153 -138 269 -281 203z m154 -59 c44 -33 63 -66 63 -115 0 -70 -32 -114 -99 -137 -90 -31 -184 67 -162 169 8 38 61 98 93 104 33 8 79 -2 105 -21z" fill="#b5a8a8"/>
<path d="M9224 511 c-108 -49 -144 -193 -73 -291 90 -124 284 -101 344 42 68 165 -105 324 -271 249z m143 -50 c67 -31 96 -108 67 -180 -42 -105 -168 -117 -232 -21 -19 29 -23 45 -20 87 5 56 22 83 73 114 38 24 59 23 112 0z" fill="#b5a8a8"/>
<path d="M9774 511 c-147 -67 -144 -294 5 -357 66 -28 174 -12 223 33 14 13 18 32 18 90 l0 73 -80 0 c-79 0 -80 0 -80 -25 0 -23 3 -25 50 -25 l50 0 0 -39 c0 -36 -3 -40 -40 -55 -52 -21 -77 -20 -119 2 -94 51 -93 193 1 253 37 23 95 20 136 -7 22 -14 25 -14 43 2 27 24 24 30 -24 53 -54 26 -128 27 -183 2z" fill="#b5a8a8"/>
<path d="M12057 393 c-25 -75 -48 -138 -53 -140 -5 -1 -27 57 -49 130 l-40 132 -32 3 c-18 2 -33 0 -33 -5 0 -4 28 -90 62 -190 61 -179 63 -183 90 -183 15 0 28 1 28 3 1 19 89 258 96 259 5 0 28 -59 52 -131 41 -126 44 -131 71 -131 26 0 29 6 89 183 34 100 62 185 62 190 0 4 -13 7 -29 7 -29 0 -30 -2 -72 -135 -23 -74 -45 -135 -49 -135 -3 0 -19 39 -34 88 -57 174 -65 192 -91 192 -22 0 -28 -11 -68 -137z" fill="#b5a8a8"/>
<path d="M12614 521 c-36 -16 -64 -60 -64 -103 0 -52 31 -82 106 -103 33 -10 69 -23 82 -31 46 -30 13 -94 -49 -94 -14 0 -47 11 -74 25 -45 22 -49 23 -61 7 -8 -9 -12 -21 -10 -27 6 -20 67 -47 120 -52 94 -10 156 33 156 107 0 54 -30 87 -98 106 -86 25 -112 41 -112 69 0 27 33 55 65 55 11 0 39 -9 62 -20 l43 -19 15 22 c14 20 13 22 -17 41 -34 22 -129 32 -164 17z" fill="#b5a8a8"/>
<path d="M14240 508 c-5 -13 -41 -95 -80 -183 -38 -87 -70 -163 -70 -167 0 -4 13 -8 29 -8 24 0 31 6 45 45 l18 45 93 0 94 0 20 -45 c18 -40 24 -45 52 -45 21 0 29 4 26 13 -3 6 -39 91 -81 187 -42 96 -76 176 -76 177 0 2 -14 3 -30 3 -22 0 -33 -6 -40 -22z" fill="#b5a8a8"/>
<path d="M2720 335 l0 -185 30 0 30 0 0 75 0 75 100 0 100 0 0 30 0 30 -101 0 -100 0 3 53 3 52 110 5 c102 5 110 7 110 25 0 19 -8 20 -142 23 l-143 3 0 -186z" fill="#b5a8a8"/>
<path d="M3170 335 l0 -185 30 0 30 0 0 65 0 65 45 0 c44 0 46 -1 87 -65 40 -60 45 -65 81 -65 l38 0 -45 66 -45 65 39 38 c34 32 40 44 40 80 0 52 -21 94 -55 109 -15 7 -72 12 -135 12 l-110 0 0 -185z m220 115 c29 -29 26 -74 -6 -99 -21 -16 -41 -21 -90 -21 l-64 0 0 70 0 70 70 0 c57 0 74 -4 90 -20z" fill="#b5a8a8"/>
<path d="M3650 335 l0 -185 30 0 30 0 0 185 0 185 -30 0 -30 0 0 -185z" fill="#b5a8a8"/>
<path d="M5752 495 c-2 -24 0 -25 58 -25 50 0 60 -3 62 -17 0 -10 2 -22 3 -28 2 -5 3 -70 4 -142 l1 -133 30 0 30 0 0 160 0 160 60 0 c57 0 60 1 60 25 l0 25 -153 0 -153 0 -2 -25z" fill="#b5a8a8"/>
<path d="M6220 335 l0 -185 140 0 140 0 0 25 0 25 -110 0 -110 0 0 55 0 55 95 0 c95 0 95 0 95 25 0 25 0 25 -95 25 l-95 0 0 55 0 55 110 0 110 0 0 25 0 25 -140 0 -140 0 0 -185z" fill="#b5a8a8"/>
<path d="M7160 335 l0 -185 30 0 29 0 3 78 3 77 93 3 92 3 0 -81 0 -80 30 0 30 0 0 185 0 185 -30 0 -30 0 0 -80 0 -81 -92 3 -93 3 -3 78 -3 77 -29 0 -30 0 0 -185z" fill="#b5a8a8"/>
<path d="M7660 335 l0 -185 30 0 29 0 3 133 3 132 50 -61 c28 -34 75 -93 105 -133 44 -58 60 -71 82 -71 l28 0 0 185 0 185 -30 0 -30 0 0 -125 c0 -69 -4 -125 -8 -125 -8 0 -111 131 -171 216 -19 27 -30 34 -57 34 l-34 0 0 -185z" fill="#b5a8a8"/>
<path d="M8730 335 l0 -185 130 0 130 0 0 25 0 25 -100 0 -100 0 0 160 0 160 -30 0 -30 0 0 -185z" fill="#b5a8a8"/>
<path d="M10150 515 c0 -2 32 -52 70 -111 l70 -106 0 -72 c0 -40 2 -75 5 -78 3 -3 17 -3 30 0 24 4 25 8 25 77 0 64 3 76 30 114 17 22 50 73 75 111 l45 70 -35 0 c-32 0 -38 -5 -86 -80 -28 -44 -54 -78 -59 -75 -4 2 -29 38 -56 80 -44 68 -52 75 -81 75 -18 0 -33 -2 -33 -5z" fill="#b5a8a8"/>
<path d="M10900 335 l-1 -185 31 0 30 0 0 130 c0 72 3 130 6 130 8 0 28 -24 126 -153 70 -90 87 -107 110 -107 l28 0 0 185 0 185 -30 0 -30 0 0 -125 c0 -69 -3 -125 -7 -125 -5 1 -51 57 -103 125 -86 113 -98 125 -127 125 l-32 0 -1 -185z" fill="#b5a8a8"/>
<path d="M11420 335 l0 -185 140 0 140 0 0 25 0 25 -110 0 -110 0 0 55 0 55 100 0 100 0 0 25 0 25 -100 0 -100 0 0 55 0 55 110 0 110 0 0 25 0 25 -140 0 -140 0 0 -185z" fill="#b5a8a8"/>
<path d="M13240 335 l0 -185 130 0 130 0 0 25 0 25 -100 0 -100 0 0 160 0 160 -30 0 -30 0 0 -185z" fill="#b5a8a8"/>
<path d="M13660 335 l0 -185 140 0 140 0 0 25 c0 24 -1 24 -107 27 l-108 3 0 50 0 50 98 3 c95 3 97 3 97 27 0 24 -2 24 -97 27 l-98 3 0 50 0 50 108 3 c106 3 107 3 107 27 l0 25 -140 0 -140 0 0 -185z" fill="#b5a8a8"/>
<path d="M14630 335 l0 -185 100 0 c79 0 109 4 138 19 70 36 102 87 102 166 0 79 -32 130 -102 166 -29 15 -59 19 -138 19 l-100 0 0 -185z m209 117 c47 -24 74 -75 67 -130 -11 -85 -60 -122 -161 -122 l-55 0 0 135 0 135 58 0 c35 0 70 -7 91 -18z" fill="#b5a8a8"/>
<path d="M15150 335 l0 -185 140 0 140 0 0 25 0 25 -110 0 -110 0 0 55 0 55 95 0 c95 0 95 0 95 25 0 25 0 25 -95 25 l-95 0 0 55 0 55 105 0 105 0 0 25 0 25 -135 0 -135 0 0 -185z" fill="#b5a8a8"/>
<path d="M15600 335 l0 -185 30 0 30 0 0 65 0 65 44 0 c43 0 45 -2 87 -65 41 -60 46 -64 82 -65 l39 0 -47 65 -46 65 41 38 c34 33 40 45 40 81 0 52 -21 94 -55 109 -15 7 -72 12 -135 12 l-110 0 0 -185z m220 115 c29 -29 26 -74 -6 -99 -21 -16 -41 -21 -90 -21 l-64 0 0 70 0 70 70 0 c57 0 74 -4 90 -20z" fill="#b5a8a8"/>
</g>
</svg>